
<svg xmlns="http://www.w3.org/2000/svg" width="1600" height="900" viewBox="0 0 1600 900">
<style>
.title { font: 700 44px Arial; fill:#111;}
.subtitle { font: 400 22px Arial; fill:#444;}
.boxTitle { font:700 22px Arial; fill:#111;}
.boxText { font:400 18px Arial; fill:#333;}
.arrow { stroke:#444; stroke-width:4; marker-end:url(#arrow); fill:none;}
</style>

<defs>
<marker id="arrow" markerWidth="10" markerHeight="10" refX="8" refY="3" orient="auto">
<polygon points="0 0, 10 3, 0 6" fill="#444"/>
</marker>
</defs>

<rect width="1600" height="900" fill="#f5f7fb"/>

<text x="800" y="70" text-anchor="middle" class="title">
Kamooni / Circles Platform Architecture
</text>

<text x="800" y="105" text-anchor="middle" class="subtitle">
Mongo-native chat • Container deployments • 30-second releases
</text>

<rect x="120" y="220" width="220" height="120" rx="20" fill="white"/>
<text x="230" y="270" text-anchor="middle" class="boxTitle">Browser</text>
<text x="230" y="300" text-anchor="middle" class="boxText">User Interface</text>

<rect x="420" y="220" width="220" height="120" rx="20" fill="white"/>
<text x="530" y="270" text-anchor="middle" class="boxTitle">NGINX</text>
<text x="530" y="300" text-anchor="middle" class="boxText">Reverse Proxy</text>

<rect x="720" y="200" width="260" height="160" rx="20" fill="white"/>
<text x="850" y="250" text-anchor="middle" class="boxTitle">Next.js Application</text>
<text x="850" y="285" text-anchor="middle" class="boxText">API + UI</text>
<text x="850" y="315" text-anchor="middle" class="boxText">Mongo Chat Runtime</text>

<rect x="1080" y="200" width="200" height="160" rx="20" fill="white"/>
<text x="1180" y="250" text-anchor="middle" class="boxTitle">MongoDB</text>
<text x="1180" y="285" text-anchor="middle" class="boxText">Users</text>
<text x="1180" y="310" text-anchor="middle" class="boxText">Circles</text>
<text x="1180" y="335" text-anchor="middle" class="boxText">Chat</text>

<line x1="340" y1="280" x2="420" y2="280" class="arrow"/>
<line x1="640" y1="280" x2="720" y2="280" class="arrow"/>
<line x1="980" y1="280" x2="1080" y2="280" class="arrow"/>

<rect x="450" y="470" width="220" height="120" rx="20" fill="white"/>
<text x="560" y="520" text-anchor="middle" class="boxTitle">MinIO</text>
<text x="560" y="550" text-anchor="middle" class="boxText">Media Storage</text>

<rect x="850" y="470" width="220" height="120" rx="20" fill="white"/>
<text x="960" y="520" text-anchor="middle" class="boxTitle">Qdrant</text>
<text x="960" y="550" text-anchor="middle" class="boxText">Vector Search</text>

<line x1="850" y1="360" x2="560" y2="470" class="arrow"/>
<line x1="850" y1="360" x2="960" y2="470" class="arrow"/>

<text x="800" y="700" text-anchor="middle" class="boxTitle">
Deployment Pipeline
</text>

<rect x="420" y="730" width="220" height="90" rx="18" fill="white"/>
<text x="530" y="785" text-anchor="middle" class="boxText">Local Build</text>

<rect x="690" y="730" width="220" height="90" rx="18" fill="white"/>
<text x="800" y="785" text-anchor="middle" class="boxText">GHCR Image</text>

<rect x="960" y="730" width="220" height="90" rx="18" fill="white"/>
<text x="1070" y="785" text-anchor="middle" class="boxText">Genesis2 Deploy</text>

<line x1="640" y1="775" x2="690" y2="775" class="arrow"/>
<line x1="910" y1="775" x2="960" y2="775" class="arrow"/>

</svg>
