<svg width="128" height="128" viewBox="0 0 128 128" fill="none" xmlns="http://www.w3.org/2000/svg">
<circle cx="64.4543" cy="17.7229" r="13.5249" fill="#4FC7E6"/>
<circle cx="75.8288" cy="116.184" r="5.79638" fill="#E1E447"/>
<circle cx="54.0281" cy="119.305" r="8.69457" fill="#7ACBBE"/>
<circle cx="5.32373" cy="5.32373" r="5.32373" transform="matrix(-1 0 0 1 107.229 78.8713)" fill="#918FBF"/>
<circle cx="5.32373" cy="5.32373" r="5.32373" transform="matrix(-1 0 0 1 88.2717 2.07104)" fill="#E1E447"/>
<circle cx="22.2195" cy="22.2195" r="22.2195" transform="matrix(-1 0 0 1 53.4988 67.3806)" fill="#00AD4C"/>
<circle cx="99.5251" cy="20.6772" r="10.6267" fill="#F9A21B"/>
<circle cx="57.8285" cy="75.8258" r="4.83975" fill="#F9A21B"/>
<circle cx="29.3838" cy="32.4922" r="18.3552" fill="#90C73D"/>
<circle cx="10.6267" cy="60.0615" r="10.6267" fill="#E1E447"/>
<circle cx="67.2986" cy="97.4768" r="12.5588" fill="#90C73D"/>
<circle cx="6.77565" cy="6.77565" r="6.77565" transform="matrix(-1 0 0 1 49.4424 0)" fill="#F9A21B"/>
<circle cx="7.72851" cy="7.72851" r="7.72851" transform="matrix(-1 0 0 1 123.367 39.5332)" fill="#90C73D"/>
<circle cx="24.1516" cy="24.1516" r="24.1516" transform="matrix(-1 0 0 1 108.511 31.9717)" fill="#E1E447"/>
<circle cx="46.9191" cy="56.6153" r="9.1776" transform="rotate(90 46.9191 56.6153)" fill="#918FBF"/>
<circle cx="95.7337" cy="103.385" r="12.5588" transform="rotate(90 95.7337 103.385)" fill="#F9A21B"/>
<circle cx="115.175" cy="31.0261" r="5.32372" transform="rotate(90 115.175 31.0261)" fill="#00AD4C"/>
<circle cx="10.1635" cy="10.1635" r="10.1635" transform="matrix(0 1 1 0 107.673 63.2104)" fill="#7ACBBE"/>
<circle cx="3.8718" cy="3.8718" r="3.8718" transform="matrix(0 1 1 0 53.0076 33.5513)" fill="#00AD4C"/>
</svg>
